<?xml version="1.0" encoding="utf-8"?>
<!-- Generator: Adobe Illustrator 25.0.1, SVG Export Plug-In . SVG Version: 6.00 Build 0)  -->
<svg version="1.1" id="Capa_1" xmlns="http://www.w3.org/2000/svg" xmlns:xlink="http://www.w3.org/1999/xlink" x="0px" y="0px"
	 viewBox="0 0 1920 1080" style="enable-background:new 0 0 1920 1080;" xml:space="preserve">
<style type="text/css">
	.st0{fill:#FFFFFF;}
	.st1{fill:#E51F38;}
	.st2{fill:#221689;}
	.st3{fill:#E6EEEF;}
	.st4{fill:#E41F38;}
</style>
<g>
	<g>
		<path class="st0" d="M50.2,201.7c4.2-9.1,10.7-15.8,19.5-20c5.2-2.6,10.6-3.9,16.1-3.9c3.9,0,7.8,0.7,11.7,2
			c9.1,2.9,15.6,8.8,19.5,17.6c2,4.2,2.9,8.5,2.9,12.9c0,4.4-1,8.7-2.9,12.9c-8.8,19.8-18,38.5-27.8,56.1c-1.6,2.9-2.4,6-2.4,9.3
			v317.9c0,9.4-3.3,17.5-10,24.1c-6.7,6.7-14.8,10-24.4,10c-9.6,0-17.7-3.3-24.4-10c-6.7-6.7-10-14.7-10-24.1v-214
			c0-0.6-0.4-1.1-1.2-1.5c-0.8-0.3-1.5-0.2-2.2,0.5c-0.7,1-1.5,2-2.4,2.9c-5.2,6.2-11.4,9.3-18.5,9.3c-1.6,0-3.4-0.2-5.4-0.5
			c-9.8-1.6-16.7-7-21-16.1c-4.2-8.8-6.3-17.7-6.3-26.8c0-2.6,0.2-5.4,0.5-8.3c1.6-12.3,6.3-23.2,14.1-32.7
			C4.9,284.4,29.7,245.3,50.2,201.7z M140.9,257.8h261.3c8.1,0,14.9,2.8,20.5,8.5c5.5,5.7,8.3,12.5,8.3,20.5c0,8-2.8,14.8-8.3,20.5
			c-5.5,5.7-12.4,8.5-20.5,8.5H140.9c-8.1,0-15-2.8-20.7-8.5c-5.7-5.7-8.5-12.5-8.5-20.5c0-8,2.8-14.8,8.5-20.5
			C125.8,260.6,132.8,257.8,140.9,257.8z M176,641.5c-9.8,0-18-3.3-24.6-10c-6.7-6.7-10-14.9-10-24.6v-87.3c0-11.7,4.1-21.7,12.2-30
			c8.1-8.3,18.2-12.4,30.2-12.4h180.4c11.7,0,21.7,4.1,30,12.4c8.3,8.3,12.4,18.3,12.4,30v83.9c0,10.1-3.6,18.7-10.7,25.8
			c-7.2,7.1-15.8,10.7-25.8,10.7h-22.4c-3.9,0-7.2-1.4-10-4.1c-2.8-2.8-4.1-6.1-4.1-10c0-1.3-0.7-2-2-2h-119c-1.3,0-2,0.6-2,2
			c0,4.2-1.5,7.9-4.6,11c-3.1,3.1-6.7,4.6-11,4.6H176z M370.5,331.9c7.5,0,14,2.8,19.5,8.3c5.5,5.5,8.3,12.1,8.3,19.7
			c0,7.6-2.8,14.2-8.3,19.7c-5.5,5.5-12,8.3-19.5,8.3H178.4c-7.5,0-14-2.8-19.5-8.3c-5.5-5.5-8.3-12.1-8.3-19.7
			c0-7.6,2.8-14.2,8.3-19.7c5.5-5.5,12-8.3,19.5-8.3H370.5z M178.4,460.6c-7.5,0-14-2.8-19.5-8.3c-5.5-5.5-8.3-12.2-8.3-20
			c0-7.8,2.8-14.4,8.3-19.7c5.5-5.4,12-8,19.5-8h189.2c7.8,0,14.5,2.7,20,8c5.5,5.4,8.3,11.9,8.3,19.7c0,7.8-2.8,14.5-8.3,20
			c-5.5,5.5-12.2,8.3-20,8.3H178.4z M361.2,185.1c7.8,0,14.4,2.8,19.7,8.3c5.4,5.5,8,12.1,8,19.7c0,7.6-2.7,14.2-8,19.7
			c-5.4,5.5-11.9,8.3-19.7,8.3H187.7c-7.8,0-14.5-2.8-20-8.3c-5.5-5.5-8.3-12.1-8.3-19.7c0-7.6,2.8-14.2,8.3-19.7
			c5.5-5.5,12.2-8.3,20-8.3H361.2z M333.5,537.6c0-3.2-1.6-4.9-4.9-4.9H215.5c-3.3,0-4.9,1.6-4.9,4.9V563c0,3.3,1.6,4.9,4.9,4.9
			h113.1c3.2,0,4.9-1.6,4.9-4.9V537.6z"/>
		<path class="st1" d="M195,642.5h-19c-10,0-18.5-3.5-25.3-10.3c-6.8-6.8-10.3-15.3-10.3-25.3v-87.3c0-11.9,4.2-22.2,12.5-30.7
			c8.3-8.4,18.7-12.7,30.9-12.7h180.4c11.9,0,22.2,4.3,30.7,12.7c8.4,8.4,12.7,18.8,12.7,30.7v83.9c0,10.3-3.7,19.2-11,26.5
			c-7.3,7.3-16.3,11-26.5,11h-22.4c-4.2,0-7.8-1.5-10.7-4.4c-2.9-2.9-4.4-6.5-4.4-10.7c0-0.7-0.2-1-1-1h-119c-0.8,0-1,0.2-1,1
			c0,4.5-1.7,8.4-4.9,11.7C203.4,640.8,199.5,642.5,195,642.5z M183.8,478.2c-11.7,0-21.6,4.1-29.5,12.1
			c-7.9,8.1-11.9,17.9-11.9,29.3v87.3c0,9.4,3.3,17.5,9.7,23.9c6.4,6.4,14.5,9.7,23.9,9.7h19c4,0,7.3-1.4,10.3-4.3
			c2.9-2.9,4.3-6.3,4.3-10.3c0-1.8,1.1-3,3-3h119c1.8,0,3,1.1,3,3c0,3.7,1.3,6.7,3.9,9.3c2.6,2.6,5.7,3.9,9.3,3.9H370
			c9.7,0,18.2-3.5,25.1-10.4c6.9-6.9,10.4-15.4,10.4-25.1v-83.9c0-11.4-4.1-21.2-12.1-29.3c-8.1-8.1-17.9-12.1-29.3-12.1H183.8z
			 M52.4,641.5c-9.8,0-18.3-3.5-25.1-10.3S17,616,17,606.4v-214c0-0.1,0-0.3-0.6-0.5c-0.3-0.1-0.7-0.1-1,0.2c-0.7,1-1.5,2-2.5,3
			c-5.3,6.3-11.8,9.6-19.2,9.6c-1.7,0-3.5-0.2-5.5-0.5c-10.1-1.7-17.4-7.3-21.7-16.7c-4.3-8.9-6.4-18-6.4-27.2
			c0-2.6,0.2-5.5,0.5-8.4c1.6-12.5,6.5-23.7,14.4-33.2C3.9,284,29,244.6,49.3,201.3c4.3-9.3,11-16.2,20-20.5c9-4.5,18.8-5.2,28.5-2
			c9.3,3,16.1,9.1,20.1,18.1c2,4.3,3,8.8,3,13.3c0,4.5-1,9-3,13.3c-8.7,19.7-18.1,38.6-27.8,56.1c-1.5,2.8-2.3,5.7-2.3,8.8v317.9
			c0,9.6-3.5,18-10.3,24.8C70.6,638,62.2,641.5,52.4,641.5z M16,389.7c0.4,0,0.8,0.1,1.1,0.2c1.6,0.7,1.9,1.8,1.9,2.4v214
			c0,9.1,3.3,17,9.7,23.4c6.4,6.4,14.4,9.7,23.7,9.7c9.3,0,17.2-3.3,23.7-9.7c6.4-6.4,9.7-14.3,9.7-23.4V288.5
			c0-3.4,0.9-6.7,2.6-9.8c9.7-17.5,19-36.3,27.7-56c1.9-4.1,2.8-8.3,2.8-12.5c0-4.2-1-8.4-2.8-12.5c-3.8-8.5-10.1-14.2-18.9-17
			c-9.2-3.1-18.5-2.4-27,1.9c-8.5,4.1-14.9,10.7-19,19.5l0,0c-20.4,43.4-45.6,83-74.7,117.7c-7.6,9.2-12.3,20.1-13.9,32.2
			c-0.3,2.8-0.5,5.6-0.5,8.2c0,8.9,2.1,17.8,6.2,26.4c4.1,8.8,10.9,14,20.2,15.5c1.9,0.3,3.6,0.5,5.2,0.5c6.8,0,12.8-3,17.8-8.9
			c1-1,1.7-1.9,2.4-2.8l0.1-0.1C14.5,390,15.2,389.7,16,389.7z M328.6,568.9H215.5c-3.8,0-5.9-2.1-5.9-5.9v-25.4
			c0-3.8,2.1-5.9,5.9-5.9h113.1c3.8,0,5.9,2.1,5.9,5.9V563C334.5,566.8,332.4,568.9,328.6,568.9z M215.5,533.8
			c-2.7,0-3.9,1.2-3.9,3.9V563c0,2.7,1.2,3.9,3.9,3.9h113.1c2.7,0,3.9-1.2,3.9-3.9v-25.4c0-2.7-1.2-3.9-3.9-3.9H215.5z M367.6,461.6
			H178.4c-7.7,0-14.5-2.9-20.2-8.6c-5.7-5.7-8.6-12.6-8.6-20.7c0-8.1,2.9-14.9,8.6-20.5c5.7-5.5,12.5-8.3,20.2-8.3h189.2
			c8,0,15,2.8,20.7,8.3c5.7,5.5,8.6,12.4,8.6,20.5c0,8-2.9,15-8.6,20.7C382.6,458.7,375.6,461.6,367.6,461.6z M178.4,405.5
			c-7.2,0-13.5,2.6-18.8,7.8c-5.3,5.1-8,11.5-8,19c0,7.5,2.7,14,8,19.3c5.3,5.3,11.6,8,18.8,8h189.2c7.5,0,14-2.7,19.3-8
			c5.3-5.3,8-11.8,8-19.3c0-7.5-2.7-13.9-8-19c-5.3-5.1-11.8-7.8-19.3-7.8H178.4z M370.5,389H178.4c-7.7,0-14.5-2.9-20.2-8.6
			c-5.7-5.7-8.6-12.6-8.6-20.5c0-7.9,2.9-14.8,8.6-20.5c5.7-5.7,12.5-8.6,20.2-8.6h192.1c7.7,0,14.5,2.9,20.2,8.6
			c5.7,5.7,8.6,12.6,8.6,20.5c0,7.9-2.9,14.8-8.6,20.5S378.2,389,370.5,389z M178.4,332.9c-7.2,0-13.5,2.7-18.8,8
			c-5.3,5.3-8,11.7-8,19c0,7.3,2.7,13.7,8,19c5.3,5.3,11.6,8,18.8,8h192.1c7.2,0,13.5-2.7,18.8-8s8-11.7,8-19c0-7.3-2.7-13.7-8-19
			c-5.3-5.3-11.6-8-18.8-8H178.4z M402.2,316.8H140.9c-8.4,0-15.6-3-21.4-8.8c-5.9-5.8-8.8-13-8.8-21.2c0-8.2,3-15.3,8.8-21.2
			c5.9-5.9,13.1-8.8,21.4-8.8h261.3c8.4,0,15.5,3,21.2,8.8c5.7,5.9,8.6,13,8.6,21.2c0,8.2-2.9,15.3-8.6,21.2
			C417.7,313.8,410.6,316.8,402.2,316.8z M140.9,258.8c-7.8,0-14.5,2.8-20,8.2c-5.5,5.5-8.2,12.1-8.2,19.8c0,7.7,2.8,14.3,8.2,19.8
			c5.5,5.5,12.2,8.2,20,8.2h261.3c7.8,0,14.5-2.8,19.8-8.2c5.3-5.5,8-12.1,8-19.8c0-7.7-2.7-14.3-8-19.8c-5.3-5.5-12-8.2-19.8-8.2
			H140.9z M361.2,242.2H187.7c-8,0-15-2.9-20.7-8.6c-5.7-5.7-8.6-12.6-8.6-20.5c0-7.9,2.9-14.8,8.6-20.5c5.7-5.7,12.7-8.6,20.7-8.6
			h173.6c8,0,14.9,2.9,20.5,8.6c5.5,5.7,8.3,12.6,8.3,20.4c0,7.9-2.8,14.8-8.3,20.4C376.2,239.3,369.3,242.2,361.2,242.2z
			 M187.7,186.1c-7.5,0-14,2.7-19.3,8c-5.3,5.3-8,11.7-8,19c0,7.3,2.7,13.7,8,19c5.3,5.3,11.8,8,19.3,8h173.6c7.5,0,13.9-2.7,19-8
			c5.2-5.3,7.8-11.7,7.8-19c0-7.3-2.6-13.7-7.8-19c-5.1-5.3-11.5-8-19-8H187.7z"/>
	</g>
	<g>
		<path class="st0" d="M523.6,485c0,19.2,3.2,33.3,9.5,42.4c6.3,9.1,16.2,14.1,29.5,15.1c17.2,0,35.3-4.1,54.4-12.4
			c19-8.3,43.6-21.9,73.9-40.7c17.6-12.7,33.2-10.7,46.8,5.9c12.3,19.5,9.8,37.7-7.8,54.6c-15,11.7-30.9,22.5-47.8,32.4
			c-16.9,9.9-35.9,18.6-57,26.1c-21.1,7.5-43.4,11.5-66.8,12.2c-38-0.7-65.5-11.8-82.4-33.4c-16.9-21.6-25.4-51.6-25.4-90V249.5
			c0-24.4,12.2-36.6,36.6-36.6c24.4,0,36.6,12.2,36.6,36.6V485z M587.5,233.4c0-12.7,6.3-19,19-19c13,0,19.5,6.3,19.5,19v42.4
			c0,12.7-6.3,19-19,19c-13,0-19.5-6.3-19.5-19V233.4z M653.8,233.4c0-12.7,6.3-19,19-19c13,0,19.5,6.3,19.5,19v42.4
			c0,12.7-6.3,19-19,19c-13,0-19.5-6.3-19.5-19V233.4z"/>
		<path class="st1" d="M558.3,621.5c-38.2-0.7-66.2-12-83.2-33.8c-17-21.7-25.6-52.2-25.6-90.6V249.5c0-24.9,12.6-37.6,37.6-37.6
			s37.6,12.6,37.6,37.6V485c0,18.9,3.1,33,9.3,41.8c6.1,8.8,15.8,13.7,28.7,14.7c16.9,0,35.1-4.2,53.9-12.4
			c18.9-8.2,43.7-21.9,73.7-40.6c17.9-12.9,34.1-10.9,48.1,6.1l0.1,0.1c12.6,19.9,9.9,38.7-8,55.9l-0.1,0.1
			c-14.9,11.7-31,22.6-47.9,32.5c-16.8,9.9-36.1,18.7-57.2,26.2C604.3,616.7,581.7,620.9,558.3,621.5z M487.1,213.9
			c-23.9,0-35.6,11.6-35.6,35.6v247.7c0,38,8.5,68,25.1,89.3c16.6,21.3,44.1,32.4,81.6,33c23.1-0.6,45.5-4.7,66.4-12.1
			c21-7.4,40.1-16.2,56.9-26c16.8-9.8,32.8-20.7,47.6-32.3c17.3-16.6,19.8-34.1,7.6-53.3c-13.4-16.2-28.2-18-45.4-5.6
			c-30.2,18.8-55.1,32.5-74,40.8c-19.1,8.3-37.5,12.5-54.8,12.5c-13.7-1-23.8-6.2-30.3-15.5c-6.4-9.2-9.7-23.7-9.7-43V249.5
			C522.6,225.6,511,213.9,487.1,213.9z M673.3,295.8c-13.6,0-20.5-6.7-20.5-20v-42.4c0-13.3,6.7-20,20-20c13.6,0,20.5,6.7,20.5,20
			v42.4C693.3,289.1,686.6,295.8,673.3,295.8z M672.8,215.4c-12.1,0-18,5.9-18,18v42.4c0,12.1,6.1,18,18.5,18c12.1,0,18-5.9,18-18
			v-42.4C691.3,221.3,685.3,215.4,672.8,215.4z M607,295.8c-13.6,0-20.5-6.7-20.5-20v-42.4c0-13.3,6.7-20,20-20
			c13.6,0,20.5,6.7,20.5,20v42.4C627,289.1,620.3,295.8,607,295.8z M606.5,215.4c-12.1,0-18,5.9-18,18v42.4c0,12.1,6.1,18,18.5,18
			c12.1,0,18-5.9,18-18v-42.4C625,221.3,619,215.4,606.5,215.4z"/>
	</g>
	<g>
		<path class="st0" d="M768.9,459.1v-97c0-23.7,11.9-35.6,35.6-35.6c24,0,36.1,11.9,36.1,35.6V405c13.3-11,26.9-19.4,40.7-25.1
			c13.8-5.7,29.8-9.3,48-11c28.6-2.3,53.7,1.5,75.3,11.2c21.6,9.8,37.8,23.8,48.5,42.2c10.7,18.4,16.2,39.7,16.6,64.1
			c0.3,50.4-22,85.8-67,106.3c-45,20.5-99.9,26.3-164.5,17.6c-25.4-4.2-37.1-17.9-35.1-41c3.2-22.1,16.2-31.9,39-29.3
			c14.3,2,34.6,2.8,60.9,2.7c26.3-0.2,46.1-2.8,59.2-8c13.2-5.2,22.4-12.1,27.8-20.7c5.4-8.6,7.7-18,7.1-28c0-9.4-2.6-18.5-7.8-27.3
			c-5.2-8.8-12.8-15.5-22.9-20.2c-10.1-4.7-24.5-5.6-43.4-2.7c-18.5,3.9-35.1,10.4-49.7,19.5c-14.6,9.1-27.6,17.2-39,24.4
			c-15,11.1-29.3,14.1-43.1,9.3C777.3,484,769.9,474.1,768.9,459.1z M840.6,223.2c26-1,46.8-1.1,62.4-0.5
			c15.6,0.7,39.7,3.6,72.2,8.8c22.1,4.2,32.3,18,30.7,41.4c-2.3,26-15.8,36.4-40.5,31.2c-27.6-4.2-48.9-6.5-63.9-6.8
			c-15.6-0.3-35.4,0-59.5,1c-21.8,1.3-33.5-11-35.1-37.1C807.6,237.8,818.8,225.1,840.6,223.2z"/>
		<path class="st1" d="M893.4,615.2c-17.6,0-36.1-1.3-55.4-3.9c-25.9-4.3-38-18.5-36-42c3.3-22.7,16.8-32.8,40.1-30.2
			c14.2,1.9,34.7,2.8,60.8,2.7c26.1-0.2,45.9-2.8,58.9-8c12.9-5.1,22.1-11.9,27.3-20.3c5.2-8.4,7.6-17.6,6.9-27.4
			c0-9.3-2.6-18.3-7.7-26.9c-5.1-8.6-12.6-15.2-22.5-19.8c-9.9-4.6-24.3-5.5-42.8-2.6c-18.3,3.8-34.9,10.4-49.4,19.4
			c-14.4,9-27.6,17.2-39,24.4c-15.1,11.2-29.9,14.3-44,9.4c-14.2-5-21.8-15.3-22.8-30.6l0-0.1v-97c0-24.3,12.3-36.6,36.6-36.6
			c24.6,0,37.1,12.3,37.1,36.6v40.8c12.8-10.4,26.1-18.5,39.3-23.9c13.8-5.7,30.1-9.4,48.3-11c28.7-2.3,54.2,1.5,75.8,11.3
			c21.7,9.8,38.2,24.1,49,42.6c10.8,18.4,16.4,40.2,16.7,64.6c0.3,50.6-22.4,86.7-67.6,107.2C971.6,608,934.8,615.2,893.4,615.2z
			 M835.1,540.7c-18,0-28.2,9.5-31,28.8c-1.9,22.6,9.3,35.7,34.3,39.8c64.2,8.7,119.3,2.8,164-17.5c44.4-20.2,66.8-55.7,66.5-105.4
			c-0.3-24.1-5.9-45.5-16.4-63.6c-10.6-18.1-26.7-32.1-48.1-41.8c-21.4-9.6-46.5-13.4-74.8-11.1c-18,1.6-34.1,5.3-47.7,10.9
			c-13.7,5.6-27.3,14-40.5,25l-1.6,1.4v-45c0-23.3-11.5-34.6-35.1-34.6c-23.3,0-34.6,11.3-34.6,34.6v97c1,14.6,8,24.1,21.5,28.8
			c13.4,4.7,27.6,1.7,42.2-9.1c11.5-7.2,24.6-15.4,39.1-24.4c14.7-9.1,31.5-15.7,50.1-19.6c19-3,33.8-2,44,2.8
			c10.2,4.8,18.1,11.7,23.4,20.6c5.3,8.9,7.9,18.3,7.9,27.8c0.7,10.2-1.8,19.8-7.2,28.6c-5.5,8.8-15,15.9-28.3,21.1
			c-13.2,5.2-33.3,8-59.6,8.1c-26.2,0.2-46.8-0.7-61.1-2.7C839.5,540.8,837.2,540.7,835.1,540.7z M976.8,306.4
			c-3.6,0-7.4-0.4-11.6-1.3c-27.4-4.2-48.9-6.5-63.7-6.8c-15.6-0.3-35.6,0-59.4,1c-22.3,1.3-34.5-11.4-36.1-38
			c0.7-24,12.3-37.1,34.5-39.1l0.1,0c25.9-1,46.9-1.1,62.5-0.5c15.6,0.7,39.9,3.6,72.3,8.8c22.6,4.3,33.2,18.6,31.6,42.5
			c-1.2,13.5-5.4,23-12.6,28.3C989.7,304.7,983.8,306.4,976.8,306.4z M889.1,296.2c4.4,0,8.5,0,12.4,0.1c14.9,0.3,36.4,2.6,64,6.8
			c11.8,2.5,21.1,1.3,27.6-3.5c6.7-5,10.6-14,11.8-26.8c1.6-23-8.2-36.2-29.9-40.4c-32.3-5.2-56.5-8.1-72-8.8
			c-15.5-0.6-36.5-0.5-62.3,0.5c-21.4,1.9-32.1,14-32.7,37.1c1.5,24.2,11.7,36.1,31,36.1c1,0,2,0,3-0.1
			C860,296.5,875.8,296.2,889.1,296.2z"/>
	</g>
	<g>
		<path class="st0" d="M1163.9,483.5c-9.8,17.2-17.6,30.2-23.4,39c-9.4,19.2-24.7,22.6-45.8,10.2c-15.9-12.7-18.2-28.4-6.8-47.3
			c14.6-21.5,28-40.2,40-56.3c12-16.1,24-32.9,36.1-50.5V367h-36.6c-26.3,0-39.5-12.3-39.5-37.1c0-25,13.2-37.5,39.5-37.5h36.6
			v-45.8c0-22.1,11.9-33.2,35.6-33.2c23.4,0,35.1,11.1,35.1,33.2v67.8c11.7-14.6,25.4-25.8,41-33.6c15.3-7.5,30.1-11.9,44.4-13.2
			c19.5-1.6,35,1.8,46.6,10.2c11.5,8.5,19.1,20.3,22.7,35.6c3.6,15.3,4.7,32.3,3.4,51.2c-0.7,11.1-1.4,24.1-2.2,39.2
			c-0.8,15.1-1.6,30.5-2.4,46.1c-0.8,15.6-1.5,29.3-2,41.2c-0.5,11.9-0.7,19.9-0.7,24.1c0,5.2,0.9,8.5,2.7,9.8
			c1.8,1.3,3.8,1.8,6.1,1.5c20.1-11.7,32.8-5.5,38,18.5c5.2,24.1-4.7,42.6-29.7,55.6c-10.7,5.2-22.1,7.5-34.1,6.8
			c-19.8-2-34.7-10.9-44.6-26.8c-9.9-15.9-14.5-35.3-13.9-58c0-8.4,0.3-19.8,1-34.1c0.6-14.3,1.5-29.4,2.4-45.3
			c1-15.9,1.9-30.1,2.7-42.7c0.8-12.5,1.2-20.9,1.2-25.1c0.3-7.8-0.5-14.5-2.4-20c-2-5.5-6.7-8.4-14.1-8.8
			c-7.5,0.3-17.4,5.7-29.7,16.1c-12.4,10.4-24.4,23.9-36.1,40.5v189.7c0,22.1-11.7,33.2-35.1,33.2c-23.7,0-35.6-11.1-35.6-33.2
			V483.5z"/>
		<path class="st1" d="M1199.5,626.9c-24.3,0-36.6-11.5-36.6-34.2V487.3c-8.8,15.5-16.1,27.5-21.5,35.7c-4.5,9.1-10.4,14.8-17.6,17
			c-8.2,2.5-18.1,0.3-29.6-6.4l-0.1-0.1c-16.3-13-18.7-29.3-7.1-48.6c14.6-21.5,28.1-40.4,40-56.4c11.9-16,24-32.8,35.9-50.2V368
			h-35.6c-26.9,0-40.5-12.8-40.5-38.1c0-25.6,13.6-38.5,40.5-38.5h35.6v-44.8c0-22.7,12.3-34.2,36.6-34.2c24,0,36.1,11.5,36.1,34.2
			v65c11.4-13.6,24.6-24.3,39.5-31.7c15.3-7.5,30.4-12,44.7-13.3c19.7-1.6,35.6,1.9,47.2,10.4c11.7,8.6,19.4,20.7,23.1,36.2
			c3.6,15.3,4.7,32.6,3.4,51.5c-0.7,11-1.4,24.2-2.2,39.2c-0.8,15.1-1.6,30.5-2.4,46.1c-0.8,15.3-1.5,29.1-2,41.2
			c-0.5,11.8-0.7,19.9-0.7,24.1c0,6,1.2,8.2,2.3,8.9c1.5,1.1,3.2,1.5,5.2,1.3c10-5.8,18.3-7.2,24.8-4.3c6.9,3,11.8,11,14.5,23.6
			c5.3,24.4-4.9,43.5-30.3,56.7c-10.9,5.3-22.5,7.6-34.6,6.9c-20.1-2-35.4-11.2-45.4-27.3c-10-16-14.7-35.7-14-58.6
			c0-8.5,0.3-20,1-34.1c0.6-14.1,1.5-29.3,2.4-45.4c1-16.7,1.9-30.7,2.7-42.7c0.8-12.7,1.2-20.9,1.2-25c0.3-7.7-0.5-14.3-2.4-19.7
			c-1.8-5.1-6.1-7.8-13.2-8.1c-7.1,0.3-16.9,5.7-29.1,15.9c-12.2,10.2-24.2,23.7-35.7,40v189.3
			C1235.6,615.4,1223.4,626.9,1199.5,626.9z M1164.9,479.7v113c0,21.6,11.3,32.2,34.6,32.2c22.9,0,34.1-10.5,34.1-32.2v-190l0.2-0.3
			c11.7-16.6,23.9-30.2,36.3-40.7c12.6-10.6,22.6-16,30.3-16.3c8,0.3,13,3.5,15.1,9.4c2,5.6,2.8,12.5,2.5,20.4
			c0,4.2-0.4,12.4-1.2,25.1c-0.8,12-1.7,25.9-2.7,42.7c-1,16-1.8,31.3-2.4,45.3c-0.6,14.1-1,25.6-1,34.1c-0.6,22.5,4,41.8,13.7,57.5
			c9.7,15.6,24.5,24.4,43.9,26.3c11.8,0.6,23.1-1.6,33.6-6.7c24.4-12.7,34.3-31,29.2-54.5c-2.6-12-7.1-19.4-13.4-22.2
			c-5.9-2.6-13.7-1.2-23.2,4.3l-0.2,0.1l-0.2,0c-2.5,0.4-4.8-0.2-6.8-1.6c-2.1-1.5-3.1-5-3.1-10.6c0-4.2,0.2-12.3,0.7-24.2
			c0.5-12.1,1.2-25.9,2-41.2c0.8-15.6,1.6-31,2.4-46.1c0.8-15,1.5-28.2,2.2-39.3c1.3-18.7,0.1-35.8-3.4-50.9
			c-3.5-15-11-26.7-22.3-35c-11.3-8.3-26.7-11.6-45.9-10c-14.1,1.3-28.9,5.7-44,13.1c-15.4,7.7-29.1,18.9-40.6,33.4l-1.8,2.2v-70.6
			c0-21.6-11.2-32.2-34.1-32.2c-23.3,0-34.6,10.5-34.6,32.2v46.8h-37.6c-25.9,0-38.5,12-38.5,36.5c0,24.3,12.6,36.1,38.5,36.1h37.6
			v13l-0.2,0.3c-12,17.4-24.1,34.4-36.1,50.5c-11.9,16-25.4,34.9-40,56.3c-11.1,18.5-9,33.5,6.6,45.9c10.9,6.4,20.4,8.5,28,6.2
			c6.6-2,12.1-7.4,16.4-16l0.1-0.1c5.8-8.7,13.7-21.9,23.4-38.9L1164.9,479.7z"/>
	</g>
	<g>
		<path class="st0" d="M-31.2,799.8c0-24.4,12.2-36.6,36.6-36.6h24.9l5.4-29.3c3.6-17.2,16.2-26,38-26.3
			c22.7,1.3,32.2,11.4,28.3,30.2c-2,7.8-3.4,16.3-4.4,25.4h25.4c24.4,0,36.6,12.2,36.6,36.6c0,24.7-12.2,37.1-36.6,37.1H85.8
			c-23.1,97.2-36.9,155.5-41.4,175c-4.9,19.2-18.5,27-41,23.4c-22.1-4.9-30.6-17.9-25.4-39c20.5-74.8,33.5-127.9,39-159.4H5.3
			C-19,836.8-31.2,824.5-31.2,799.8z M243.3,883.6v47.8c14.6,5.2,32.8,13.8,54.6,25.8c14,10.4,15.9,25.4,5.9,44.9
			c-11.4,15.9-25,19.2-41,9.8c-4.6-2.3-11.1-5-19.5-8.3v31.7c0,24.7-4.1,43.3-12.4,55.8c-8.3,12.5-18.3,21-30,25.4
			c-11.7,4.4-23.6,6.6-35.6,6.6c-15.6,0.6-31-1.8-46.1-7.3c-15.1-5.5-28-15.4-38.5-29.7c-10.6-14.3-15.8-34.4-15.8-60.5
			c0.3-33.5,10.6-59.7,31-78.7c20.3-19,48.3-27.4,84.1-25.1v-38c0-21.1,10.6-31.7,31.7-31.7C232.7,851.9,243.3,862.5,243.3,883.6z
			 M165.3,1054.3c4.9-0.3,8.5-2.8,11-7.3c2.4-4.5,3.7-10.6,3.7-18v-41.4c-17.6-2.6-30.9-0.5-40,6.3c-9.1,6.8-14.1,16.3-15.1,28.3
			c-0.3,12,3.2,20.6,10.5,25.8C142.6,1053.1,152.6,1055.2,165.3,1054.3z M183.8,782.2c6.5-22.4,21.5-30.5,44.9-24.4l43.9,11.7
			c23.4,6.5,31.9,20.8,25.4,42.9c-6.8,22.4-21.9,30.6-45.3,24.4l-43.4-11.7C185.4,819,177,804.7,183.8,782.2z"/>
		<path class="st1" d="M160.4,1124.1c-14,0-28-2.5-41.6-7.5c-15.2-5.6-28.4-15.7-39-30.1c-10.6-14.4-16-34.9-16-61
			c0.3-33.6,10.8-60.3,31.3-79.5c20.2-18.9,48.4-27.5,83.8-25.4v-37c0-21.7,11-32.7,32.7-32.7c21.7,0,32.7,11,32.7,32.7v47.1
			c14.5,5.2,32.7,13.8,54.1,25.7l0.1,0.1c14.4,10.7,16.4,26.2,6.1,46.1l-0.1,0.1c-11.7,16.4-25.9,19.7-42.3,10
			c-4.2-2.1-10.3-4.7-18-7.7v30.2c0,24.8-4.2,43.8-12.6,56.4c-8.4,12.6-18.6,21.3-30.5,25.7c-11.8,4.4-23.9,6.6-35.9,6.6
			C163.6,1124.1,162,1124.1,160.4,1124.1z M168.9,922.3c-30.2,0-54.5,8.5-72.4,25.2c-20,18.7-30.3,45-30.6,78
			c0,25.7,5.3,45.8,15.6,59.9c10.4,14.1,23.2,24,38.1,29.4c14.9,5.5,30.3,7.9,45.7,7.3c11.9,0,23.7-2.2,35.3-6.5
			c11.4-4.3,21.4-12.7,29.5-25c8.1-12.3,12.3-30.9,12.3-55.3v-33.1l1.4,0.5c8.4,3.2,15,6,19.6,8.3c15.6,9.2,28.5,6.1,39.7-9.4
			c9.9-19.1,8-33.3-5.5-43.5c-21.6-11.9-39.9-20.6-54.4-25.7l-0.7-0.2v-48.5c0-20.7-10-30.7-30.7-30.7s-30.7,10-30.7,30.7v39.1
			l-1.1-0.1C176.1,922.4,172.4,922.3,168.9,922.3z M159.5,1055.5c-10.2,0-18.5-2.3-24.8-6.8c-7.6-5.4-11.2-14.4-10.9-26.7
			c1-12.3,6.2-22.1,15.5-29c9.3-7,23-9.2,40.7-6.5l0.9,0.1v42.3c0,7.6-1.3,13.8-3.8,18.5c-2.6,4.9-6.6,7.5-11.8,7.8
			C163.3,1055.4,161.4,1055.5,159.5,1055.5z M166.4,987.4c-10.8,0-19.5,2.4-25.9,7.2c-8.8,6.6-13.8,15.9-14.7,27.6
			c-0.3,11.6,3.1,20,10.1,24.9c7.1,5,17,7.1,29.3,6.2l0,0c4.5-0.3,7.9-2.5,10.2-6.8c2.3-4.4,3.5-10.3,3.5-17.6v-40.6
			C174.5,987.7,170.3,987.4,166.4,987.4z M13.3,1037.1c-3.1,0-6.5-0.3-10.1-0.9c-11.5-2.5-19.6-7.3-23.9-14.3
			c-4.1-6.7-4.9-15.4-2.3-26c20.1-73.4,33.2-126.6,38.8-158.2H5.3c-24.9,0-37.6-12.8-37.6-38.1c0-24.9,12.6-37.6,37.6-37.6h24
			l5.2-28.4c3.7-17.7,16.8-26.8,39-27.1c12.7,0.7,21.4,4.2,26.1,10.2c4,5.2,5,12.3,3.2,21.2c-1.9,7.4-3.3,15.5-4.3,24.1h24.2
			c24.9,0,37.6,12.6,37.6,37.6c0,25.2-12.6,38.1-37.6,38.1H86.6c-22.8,95.9-36.7,154.5-41.3,174.3
			C41.1,1028.7,30.3,1037.1,13.3,1037.1z M5.3,764.2c-23.9,0-35.6,11.6-35.6,35.6c0,24.3,11.6,36.1,35.6,36.1h12.9L18,837
			c-5.5,31.5-18.6,85.1-39,159.5c-2.5,10-1.8,18.2,2.1,24.4c4,6.4,11.6,10.9,22.5,13.3c22,3.5,35-3.9,39.8-22.7
			c4.6-19.7,18.5-78.6,41.4-175l0.2-0.8h37.8c23.9,0,35.6-11.8,35.6-36.1c0-23.9-11.6-35.6-35.6-35.6H96.4l0.1-1.1
			c1-9.1,2.5-17.7,4.4-25.5c1.7-8.3,0.8-14.8-2.8-19.5c-4.3-5.6-12.5-8.8-24.5-9.5c-21.4,0.3-33.5,8.7-37,25.5l-5.5,30H5.3z
			 M266.5,839.8c-4.4,0-9.1-0.7-14.2-2l-43.4-11.7c-12.3-3.2-20.8-8.7-25-16.3c-4.1-7.3-4.4-16.7-1-27.8
			c6.6-22.9,22.1-31.4,46.1-25.1l43.9,11.7c12.2,3.4,20.6,9,24.8,16.7c4,7.3,4.4,16.5,1.2,27.5C293.3,830.8,282.5,839.8,266.5,839.8
			z M214.5,756.8c-15,0-24.8,8.5-29.8,25.7l0,0c-3.2,10.6-3,19.5,0.9,26.3c4,7.1,12,12.3,23.8,15.4l43.4,11.7
			c23,6.1,37.4-1.7,44.1-23.7c3.1-10.4,2.7-19.2-1.1-26c-4-7.2-11.9-12.4-23.6-15.7l-43.9-11.7C223.4,757.5,218.7,756.8,214.5,756.8
			z"/>
	</g>
	<g>
		<path class="st0" d="M340.3,763.7c1.3-24.4,14-36.6,38-36.6c22.7,1.3,33.8,13.5,33.2,36.6c0,8.8-0.3,23.2-1,43.4
			c-0.7,20.2-1.2,42-1.7,65.6c-0.5,23.6-0.9,45.3-1.2,65.1c0,25.7,1.2,46.5,3.7,62.4c2.4,15.9,7.7,24.4,15.8,25.4
			c9.1-0.3,17.7-2.3,25.8-5.9c17.2-11,31.4-6.5,42.4,13.7c6.2,22.4-0.5,39.5-20,51.2c-6.2,5.5-12.7,9.6-19.5,12.2
			c-6.8,2.6-18.5,4.9-35.1,6.8c-28.3,2.3-49.3-9-63.1-33.9c-13.8-24.9-20.7-62.8-20.7-113.8c0-20.8,0.1-44,0.2-69.5
			c0.2-25.5,0.5-49.4,1-71.7C338.6,792.4,339.3,775.4,340.3,763.7z M550,766.1c-4.9-22.7,5.5-34.4,31.2-35.1
			c21.8,0.3,34.8,12,39,35.1c8.1,28.6,15.2,69.8,21.2,123.6c6,53.8,8.5,108.5,7.6,164.1c0,26.7-12.2,40-36.6,40
			c-23.7,0-35.4-11.4-35.1-34.1c0.3-10.7,0.1-29.7-0.7-57c-0.8-27.3-2.7-57.2-5.6-89.7c-2.9-32.5-6.3-60.2-10-83.1
			C557.2,806.8,553.5,785.6,550,766.1z"/>
		<path class="st1" d="M413.9,1104.8c-25.2,0-44.4-11.6-57.2-34.7c-13.8-24.9-20.8-63.4-20.8-114.3c0-21.5,0.1-44.8,0.2-69.5
			c0.2-25.2,0.5-49.3,1-71.7c0.5-22.2,1.2-39.3,2.2-51c1.3-24.9,14.5-37.5,39-37.5c23.3,1.3,34.8,14,34.2,37.6
			c0,8.7-0.3,23.3-1,43.4c-0.6,19.7-1.2,41.7-1.7,65.6c-0.5,24.9-0.9,46.2-1.2,65.1c0,25.5,1.2,46.4,3.6,62.2
			c2.3,15.3,7.4,23.5,14.9,24.5c8.9-0.3,17.4-2.3,25.3-5.7c8.3-5.3,16-7.1,23-5.3c7.8,2,14.8,8.5,20.8,19.4l0.1,0.2
			c6.3,22.8-0.6,40.4-20.4,52.3c-6.2,5.5-12.8,9.7-19.7,12.3c-6.9,2.6-18.8,4.9-35.3,6.9C418.5,1104.7,416.2,1104.8,413.9,1104.8z
			 M378.3,728.1c-23.6,0-35.7,11.7-37,35.6l0,0c-1,11.6-1.7,28.7-2.2,50.9c-0.5,22.3-0.8,46.4-1,71.7c-0.2,24.6-0.2,48-0.2,69.5
			c0,50.6,6.9,88.8,20.6,113.4c13.5,24.4,34.5,35.6,62.2,33.4c16.4-1.9,28.1-4.2,34.8-6.8c6.7-2.6,13.1-6.6,19.2-12l0.2-0.1
			c19.2-11.5,25.6-27.9,19.6-50c-5.7-10.3-12.2-16.4-19.4-18.3c-6.4-1.6-13.7,0.1-21.5,5.1l-0.1,0.1c-8.2,3.6-17,5.6-26.2,5.9
			l-0.1,0l-0.1,0c-8.6-1-14.2-9.8-16.7-26.2c-2.4-15.9-3.7-36.9-3.7-62.6c0.3-18.9,0.7-40.2,1.2-65.1c0.5-23.8,1.1-45.9,1.7-65.6
			c0.6-20.1,1-34.7,1-43.4C411.1,741,400.6,729.4,378.3,728.1z M612.4,1094.8c-12.3,0-21.6-3.1-27.6-9.2c-5.8-5.9-8.6-14.6-8.5-26
			c0.3-10.7,0.1-29.8-0.7-57c-0.8-27.2-2.7-57.4-5.6-89.6c-2.9-32.3-6.3-60.2-10-83.1c-3.7-22.8-7.4-44.2-11-63.6
			c-2.4-11.1-1.2-19.7,3.6-25.8c5.2-6.6,14.8-10.2,28.6-10.5c22.3,0.3,35.7,12.4,40,35.9c8.1,28.4,15.2,70.1,21.2,123.7
			c6,53.6,8.5,108.8,7.6,164.2C649.9,1081,637.3,1094.8,612.4,1094.8z M581.2,732c-13.1,0.3-22.2,3.6-27,9.8
			c-4.4,5.5-5.4,13.7-3.2,24.1l0,0c3.6,19.4,7.3,40.8,11,63.6c3.7,22.9,7.1,50.9,10,83.2c2.9,32.3,4.8,62.5,5.6,89.8
			c0.8,27.2,1.1,46.4,0.7,57.1c-0.2,10.8,2.5,19,7.9,24.5c5.6,5.7,14.4,8.6,26.2,8.6c23.9,0,35.6-12.8,35.6-39
			c1-55.3-1.6-110.4-7.6-163.9c-6-53.5-13.1-95-21.2-123.4C615,743.6,602.6,732.4,581.2,732z"/>
	</g>
	<g>
		<path class="st0" d="M698.7,754.4c4.5-20.8,18.8-30.5,42.9-29.3c20.8,0.3,30.5,12,29.3,35.1c-2.3,15.3-4.6,37-6.8,65.1
			c-2.3,28.1-3.6,57.6-3.9,88.5c0.3,32.8,1.6,63.3,3.9,91.4c2.3,28.1,4.5,49.8,6.8,65.1c1.3,23.1-8.5,34.8-29.3,35.1
			c-24.1,1.3-38.4-8.5-42.9-29.3c-2.9-18.8-5.5-42.4-7.8-70.7c-2.3-28-3.6-57.8-3.9-89.7v-0.5c0.3-32.2,1.6-62.2,3.9-90.2
			C693.2,796.9,695.8,773.3,698.7,754.4z M885.9,935.3v-38.5h-60c-22.1,0-33.2-11-33.2-33.2c0-22.1,11-33.2,33.2-33.2h60v-41.4
			h-60.5c-21.8,0-32.7-10.9-32.7-32.7c0-22.1,10.9-33.2,32.7-33.2h147.7c21.8,0,32.7,10.9,32.7,32.7c0,22.1-10.9,33.2-32.7,33.2h-21
			v41.4h20.5c22.1,0,33.2,11.1,33.2,33.2c0,22.1-11.1,33.2-33.2,33.2h-20.5v47.3c11.4,3.6,26.3,9.9,44.9,19
			c14.3,7.8,18.2,21.5,11.7,41c-8.8,17.2-21.1,21.1-37.1,11.7c-3.9-1.6-10.4-3.9-19.5-6.8v28.3c0,22.1-4.2,38.8-12.7,50
			c-8.5,11.2-18.7,18.8-30.7,22.9c-12,4.1-24.1,6.1-36.1,6.1c-15.6,0.6-30.6-1.5-44.9-6.6c-14.3-5-26.1-14.1-35.3-27.1
			s-13.9-31-13.9-54.1c0.3-29.9,9.5-53.5,27.5-70.7C824.2,940.5,850.8,933,885.9,935.3z M872.8,1051.8c4.9-0.3,8.3-2.2,10.2-5.6
			s2.9-8.2,2.9-14.4v-35.6c-16.6-2.3-28.6-0.6-36.1,5.1c-7.5,5.7-11.7,13.7-12.7,24.1c-0.7,10.1,2,17.1,7.8,21.2
			C850.8,1050.8,860.1,1052.5,872.8,1051.8z"/>
		<path class="st1" d="M867.5,1117.3c-13.8,0-27.2-2.3-39.9-6.7c-14.4-5.1-26.5-14.3-35.8-27.4s-14.1-31.5-14.1-54.7
			c0.3-30,9.7-54.1,27.9-71.4c18-17.2,44.7-24.8,79.4-22.8v-36.5h-59c-22.7,0-34.2-11.5-34.2-34.2s11.5-34.2,34.2-34.2h59v-39.4
			h-59.5c-22.3,0-33.7-11.3-33.7-33.7c0-22.7,11.3-34.2,33.7-34.2h147.7c22.3,0,33.7,11.3,33.7,33.7c0,22.7-11.3,34.2-33.7,34.2h-20
			v39.4h19.5c22.7,0,34.2,11.5,34.2,34.2s-11.5,34.2-34.2,34.2h-19.5v45.6c11.3,3.6,26.2,10,44.3,18.8c14.8,8,18.9,22.2,12.2,42.2
			l-0.1,0.1c-4.6,9-10.3,14.6-16.9,16.5c-6.3,1.8-13.6,0.4-21.5-4.3c-3.7-1.5-9.8-3.7-18.1-6.3v26.9c0,22.2-4.3,39.2-12.9,50.6
			c-8.5,11.3-19,19.1-31.2,23.3c-12.1,4.1-24.3,6.1-36.4,6.1C871,1117.3,869.2,1117.3,867.5,1117.3z M874.2,935.9
			c-29,0-51.6,7.6-67.3,22.5c-17.8,17-26.9,40.5-27.2,70c0,22.8,4.6,40.8,13.7,53.5c9.1,12.8,20.8,21.7,34.9,26.7
			c14.1,5,29.1,7.2,44.5,6.5c11.9,0,23.9-2,35.8-6c11.8-4,21.9-11.6,30.2-22.6c8.3-11,12.5-27.6,12.5-49.4v-29.6l1.3,0.4
			c9.1,2.9,15.7,5.2,19.6,6.9l0.1,0.1c7.5,4.4,14.2,5.8,20,4.2c6-1.8,11.3-6.9,15.6-15.4c6.3-19.1,2.7-32.1-11.3-39.7
			c-18.4-9-33.4-15.4-44.7-18.9l-0.7-0.2v-49h21.5c21.6,0,32.2-10.5,32.2-32.2c0-21.6-10.5-32.2-32.2-32.2h-21.5v-43.4h22
			c21.3,0,31.7-10.5,31.7-32.2c0-21.3-10.4-31.7-31.7-31.7H825.5c-21.3,0-31.7,10.5-31.7,32.2c0,21.3,10.4,31.7,31.7,31.7h61.5v43.4
			h-61c-21.6,0-32.2,10.5-32.2,32.2c0,21.6,10.5,32.2,32.2,32.2h61v40.6l-1.1-0.1C881.8,936.1,877.9,935.9,874.2,935.9z
			 M737.5,1106.6c-22,0-35.4-10.1-39.8-30.2c-2.9-18.9-5.6-42.7-7.8-70.8c-2.3-27.9-3.6-58.1-3.9-89.8v-0.5
			c0.3-32,1.6-62.4,3.9-90.3c2.3-28.1,4.9-51.9,7.8-70.8l0-0.1c4.6-21.2,19.4-31.4,43.9-30c10,0.2,17.7,3,22.8,8.4
			c5.6,6,8.1,15.3,7.4,27.7c-2.3,15.3-4.6,37.2-6.8,65.1c-2.3,28-3.6,57.7-3.9,88.4c0.3,32.6,1.6,63.3,3.9,91.3
			c2.3,27.9,4.5,49.8,6.8,65c0.7,12.5-1.8,21.8-7.4,27.8c-5.1,5.4-12.7,8.3-22.8,8.4C740.2,1106.5,738.8,1106.6,737.5,1106.6z
			 M699.7,754.6c-2.9,18.8-5.5,42.6-7.8,70.6c-2.3,27.8-3.6,58.2-3.9,90.1v0.5c0.3,31.6,1.6,61.8,3.9,89.6
			c2.3,28.1,4.9,51.8,7.8,70.6c4.5,20.4,18.2,29.7,41.9,28.4c9.6-0.2,16.8-2.8,21.4-7.8c5.2-5.6,7.5-14.4,6.9-26.2
			c-2.3-15.2-4.6-37.1-6.8-65.1c-2.3-28-3.6-58.8-3.9-91.5c0.3-30.7,1.6-60.5,3.9-88.6c2.3-28,4.6-49.9,6.8-65.2
			c0.7-11.7-1.7-20.5-6.9-26.2c-4.7-5-11.9-7.7-21.4-7.8C717.9,724.9,704.2,734.2,699.7,754.6z M867.8,1053
			c-10.3,0-18.2-1.8-23.4-5.4c-6.1-4.3-8.9-11.7-8.2-22.1c1-10.7,5.4-19,13.1-24.9c7.7-5.8,20-7.6,36.8-5.3l0.9,0.1v36.5
			c0,6.3-1,11.3-3.1,14.9c-2.1,3.7-5.8,5.8-11,6.1l0,0C871.1,1052.9,869.4,1053,867.8,1053z M872.9,996.3c-9.8,0-17.3,2-22.4,5.9
			c-7.2,5.5-11.3,13.4-12.3,23.4c-0.6,9.6,1.9,16.5,7.4,20.3c5.6,3.9,14.8,5.6,27.2,4.9c4.6-0.3,7.6-2,9.4-5.1
			c1.9-3.2,2.8-7.9,2.8-13.9v-34.7C880.6,996.6,876.6,996.3,872.9,996.3z"/>
	</g>
	<g>
		<path class="st0" d="M1294.5,892.9c-55.6,3.6-93.6,8.6-114.1,15.1c-20.5,6.5-38.1,15.4-52.9,26.6c-14.8,11.2-22.4,25.8-22.7,43.6
			c0.3,17.2,5.9,30.6,16.6,40c10.7,9.4,23.6,15.1,38.8,17.1c15.1,2,31.4,2.4,49,1.5c20.5,0,47.6-1.8,81.4-5.4
			c23.1-2.3,34.8,9.4,35.1,35.1c0.6,23.7-9.8,36.9-31.2,39.5c-22.4,3.9-50.4,5.7-83.9,5.4c-31.2,0.3-60.4-2.4-87.5-8.3
			c-27.1-5.9-50.3-19.5-69.5-41c-19.2-21.5-27.6-50.9-25.4-88.2c2-20.5,6.4-37.8,13.4-51.9c7-14.1,16.5-26,28.5-35.6
			c12-9.6,23.9-18.1,35.6-25.6l-18.5-110.2c-2-18.2,8-29.3,29.7-33.2c22.7-2,35.4,7.2,38,27.3l14.1,92.6c28.6-11,70.4-17.7,125.3-20
			c20.5,0,30.9,12.8,31.2,38.5C1325.4,880.2,1315,892.6,1294.5,892.9z M1238,735.9c0-11,5.5-16.6,16.6-16.6
			c11.4,0,17.1,5.5,17.1,16.6V773c0,11.1-5.5,16.6-16.6,16.6c-11.4,0-17.1-5.5-17.1-16.6V735.9z M1290.6,735.9
			c0-11,5.5-16.6,16.6-16.6c11.4,0,17.1,5.5,17.1,16.6V773c0,11.1-5.5,16.6-16.6,16.6c-11.4,0-17.1-5.5-17.1-16.6V735.9z"/>
		<path class="st1" d="M1218.1,1112.4c-2.4,0-4.9,0-7.4,0c-31.1,0.3-60.7-2.5-87.7-8.3c-27.2-5.9-50.8-19.8-70-41.3
			c-19.3-21.6-27.9-51.5-25.6-89c2-20.5,6.5-38.1,13.5-52.3c7-14.2,16.7-26.3,28.8-35.9c11.8-9.4,23.6-17.9,35.1-25.3l-18.4-109.5
			c-2-18.8,8.3-30.3,30.5-34.3c23.4-2,36.5,7.5,39.2,28.2l13.9,91.4c28.5-10.8,70.4-17.4,124.5-19.6c21.1,0,31.9,13.3,32.2,39.5
			c-0.3,24.9-11.2,37.7-32.2,38.1c-55.2,3.6-93.5,8.6-113.8,15.1c-20.3,6.4-38,15.3-52.6,26.4c-14.5,11-22,25.4-22.3,42.9
			c0.3,16.8,5.8,30,16.2,39.2c10.5,9.2,23.4,14.9,38.2,16.8c15,1.9,31.4,2.4,48.8,1.5c20.4,0,47.8-1.8,81.4-5.4
			c11.2-1.1,19.9,1.1,25.9,6.5c6.6,5.9,10.1,15.9,10.3,29.6c0.7,24.2-10.1,37.8-32.1,40.5C1274,1110.5,1248.3,1112.4,1218.1,1112.4z
			 M1210.7,1110.3c33.3,0.3,61.5-1.5,83.7-5.3c21.1-2.6,31-15.1,30.4-38.5c-0.2-13.1-3.4-22.6-9.6-28.2c-5.6-5-13.8-7-24.4-6
			c-33.6,3.6-61.1,5.4-81.5,5.4c-17.5,1-34,0.5-49.1-1.5c-15.3-2-28.5-7.8-39.3-17.3c-10.9-9.6-16.6-23.3-16.9-40.7
			c0.3-18.2,8.1-33.1,23.1-44.5c14.8-11.2,32.7-20.2,53.2-26.7c20.5-6.5,58.9-11.6,114.3-15.2l0,0c20-0.3,29.9-12.1,30.2-36.1
			c-0.3-25.2-10.2-37.5-30.2-37.5c-54.5,2.3-96.6,9-124.9,19.9l-1.2,0.4l-14.3-93.9c-2.6-19.7-14.6-28.4-37-26.5
			c-21.3,3.8-30.7,14.3-28.8,32l18.6,110.8l-0.6,0.4c-11.6,7.4-23.6,16-35.5,25.5c-11.9,9.5-21.4,21.3-28.2,35.3
			c-6.9,14-11.4,31.3-13.3,51.6c-2.2,36.9,6.2,66.3,25.1,87.5c18.9,21.2,42.1,34.9,68.9,40.6
			C1150.3,1107.9,1179.6,1110.7,1210.7,1110.3z M1307.7,790.5c-12,0-18.1-5.9-18.1-17.6v-37.1c0-11.7,5.9-17.6,17.6-17.6
			c12,0,18.1,5.9,18.1,17.6V773C1325.3,784.6,1319.3,790.5,1307.7,790.5z M1307.2,720.3c-10.5,0-15.6,5.1-15.6,15.6V773
			c0,10.5,5.3,15.6,16.1,15.6c10.5,0,15.6-5.1,15.6-15.6v-37.1C1323.3,725.4,1318,720.3,1307.2,720.3z M1255,790.5
			c-12,0-18.1-5.9-18.1-17.6v-37.1c0-11.7,5.9-17.6,17.6-17.6c12,0,18.1,5.9,18.1,17.6V773C1272.6,784.6,1266.7,790.5,1255,790.5z
			 M1254.5,720.3c-10.5,0-15.6,5.1-15.6,15.6V773c0,10.5,5.3,15.6,16.1,15.6c10.5,0,15.6-5.1,15.6-15.6v-37.1
			C1270.6,725.4,1265.4,720.3,1254.5,720.3z"/>
	</g>
</g>
<path class="st2" d="M1596.3,1232.5l-519.5-408.9C921.9,701.6,895,476.9,1017,322l0,0c122-154.9,346.7-181.8,501.6-59.8l519.5,408.9
	c154.9,122,181.8,346.7,59.8,501.6l0,0C1975.8,1327.6,1751.2,1354,1596.3,1232.5z"/>
<path class="st2" d="M1453.5,74.2L1231.3-34.3c-38.6-18.7-54.6-65.1-35.9-103.7l0,0c18.7-38.6,65.1-54.6,103.7-35.6l222.3,108.5
	C1560-46.4,1576,0,1557,38.6l0,0C1538.3,77,1491.9,92.9,1453.5,74.2z"/>
<path class="st3" d="M1927.8,411l-205.5,70.9c-35.5,12.2-74.3-6.6-86.7-42.1l0,0c-12.2-35.5,6.6-74.3,42.2-86.7l205.5-70.9
	c35.5-12.2,74.3,6.6,86.7,42.1l0,0C1982.4,360,1963.5,398.8,1927.8,411z"/>
<path class="st4" d="M1080.4,660.7L951.5,705c-38.5,13.3-80.2-7.2-93.6-45.8l0,0c-13.3-38.5,7.2-80.2,45.8-93.6l128.9-44.3
	c38.5-13.3,80.2,7.2,93.6,45.8l0,0C1139.2,605.7,1118.7,647.4,1080.4,660.7z"/>
<path class="st4" d="M1794.1,149.8l-62.2-30.3c-18.7-9-26.3-31.5-17.3-50l0,0c9-18.7,31.5-26.3,50-17.3l62.2,30.3
	c18.7,9,26.3,31.5,17.3,50l0,0C1835,151.2,1812.5,158.9,1794.1,149.8z"/>
</svg>
